# This file uses centimeters as units for non-parametric coordinates.

mtllib Sign2.mtl
g default
v -1.627257 0.827217 0.108480
v -1.289146 0.827217 0.108480
v 1.289146 0.827217 0.108480
v 1.627257 0.827217 0.108480
v -1.627257 0.930387 0.108480
v -1.289146 0.930387 0.108480
v 1.289146 0.930387 0.108480
v 1.627257 0.930387 0.108480
v -1.627257 2.351304 0.108480
v -1.289146 2.351304 0.108480
v 1.289146 2.351304 0.108480
v 1.627257 2.351304 0.108480
v -1.627257 2.454474 0.108480
v -1.289146 2.454474 0.108480
v 1.289146 2.454474 0.108480
v 1.627257 2.454474 0.108480
v -1.627257 2.454474 -0.108484
v -1.289146 2.454474 -0.108484
v 1.289146 2.454474 -0.108484
v 1.627257 2.454474 -0.108484
v -1.627257 2.351304 -0.108484
v -1.289146 2.351304 -0.108484
v 1.289146 2.351304 -0.108484
v 1.627257 2.351304 -0.108484
v -1.627257 0.930387 -0.108484
v -1.289146 0.930387 -0.108484
v 1.289146 0.930387 -0.108484
v 1.627257 0.930387 -0.108484
v -1.627257 0.827217 -0.108484
v -1.289146 0.827217 -0.108484
v 1.289146 0.827217 -0.108484
v 1.627257 0.827217 -0.108484
v -1.289146 2.351304 0.002771
v 1.289146 2.351304 0.002771
v 1.289146 0.930387 0.002771
v -1.289146 0.930387 0.002771
v -1.627257 2.694770 0.108480
v -1.289146 2.694770 0.108480
v -1.289146 2.694770 -0.108484
v -1.627257 2.694770 -0.108484
v 1.289146 2.694770 0.108480
v 1.627257 2.694770 0.108480
v 1.627257 2.694770 -0.108484
v 1.289146 2.694770 -0.108484
v -1.627257 -0.104912 -0.108484
v -1.289146 -0.104912 -0.108484
v -1.289146 -0.104912 0.108480
v -1.627257 -0.104912 0.108480
v 1.289146 -0.104912 -0.108484
v 1.627257 -0.104912 -0.108484
v 1.627257 -0.104912 0.108480
v 1.289146 -0.104912 0.108480
vt 0.375000 0.000000
vt 0.458333 0.000000
vt 0.541667 0.000000
vt 0.625000 0.000000
vt 0.375000 0.083333
vt 0.458333 0.083333
vt 0.541667 0.083333
vt 0.625000 0.083333
vt 0.375000 0.166667
vt 0.458333 0.166667
vt 0.541667 0.166667
vt 0.625000 0.166667
vt 0.375000 0.250000
vt 0.458333 0.250000
vt 0.541667 0.250000
vt 0.625000 0.250000
vt 0.375000 0.500000
vt 0.458333 0.500000
vt 0.541667 0.500000
vt 0.625000 0.500000
vt 0.375000 0.583333
vt 0.458333 0.583333
vt 0.541667 0.583333
vt 0.625000 0.583333
vt 0.375000 0.666667
vt 0.458333 0.666667
vt 0.541667 0.666667
vt 0.625000 0.666667
vt 0.375000 0.750000
vt 0.458333 0.750000
vt 0.541667 0.750000
vt 0.625000 0.750000
vt 0.375000 1.000000
vt 0.458333 1.000000
vt 0.541667 1.000000
vt 0.625000 1.000000
vt 0.875000 0.000000
vt 0.875000 0.083333
vt 0.875000 0.166667
vt 0.875000 0.250000
vt 0.125000 0.000000
vt 0.125000 0.083333
vt 0.125000 0.166667
vt 0.125000 0.250000
vt 0.458333 0.583333
vt 0.541667 0.583333
vt 0.541667 0.666667
vt 0.458333 0.666667
vt 0.375000 0.250000
vt 0.458333 0.250000
vt 0.458333 0.500000
vt 0.375000 0.500000
vt 0.541667 0.250000
vt 0.625000 0.250000
vt 0.625000 0.500000
vt 0.541667 0.500000
vt 0.375000 0.750000
vt 0.458333 0.750000
vt 0.458333 1.000000
vt 0.375000 1.000000
vt 0.541667 0.750000
vt 0.625000 0.750000
vt 0.625000 1.000000
vt 0.541667 1.000000
vn 0.000000 0.000000 1.000000
vn 0.000000 0.000000 1.000000
vn 0.000000 0.000000 1.000000
vn 0.000000 0.000000 1.000000
vn 0.000000 0.000000 1.000000
vn 0.000000 0.000000 1.000000
vn 0.000000 0.000000 1.000000
vn 0.000000 0.000000 1.000000
vn 0.000000 0.000000 1.000000
vn 0.000000 0.000000 1.000000
vn 0.000000 0.000000 1.000000
vn 0.000000 0.000000 1.000000
vn 0.000000 0.000000 1.000000
vn 0.000000 0.000000 1.000000
vn 0.000000 0.000000 1.000000
vn 0.000000 0.000000 1.000000
vn 0.000000 1.000000 0.000000
vn 0.000000 1.000000 0.000000
vn 0.000000 1.000000 0.000000
vn 0.000000 1.000000 0.000000
vn 0.000000 1.000000 0.000000
vn 0.000000 1.000000 0.000000
vn 0.000000 1.000000 0.000000
vn 0.000000 1.000000 0.000000
vn 0.000000 1.000000 0.000000
vn 0.000000 1.000000 0.000000
vn 0.000000 1.000000 0.000000
vn 0.000000 1.000000 0.000000
vn 0.000000 0.000000 -1.000000
vn 0.000000 0.000000 -1.000000
vn 0.000000 0.000000 -1.000000
vn 0.000000 0.000000 -1.000000
vn 0.000000 0.000000 -1.000000
vn 0.000000 0.000000 -1.000000
vn 0.000000 0.000000 -1.000000
vn 0.000000 0.000000 -1.000000
vn 0.000000 0.000000 -1.000000
vn 0.000000 0.000000 -1.000000
vn 0.000000 0.000000 -1.000000
vn 0.000000 0.000000 -1.000000
vn 0.000000 0.000000 -1.000000
vn 0.000000 0.000000 -1.000000
vn 0.000000 0.000000 -1.000000
vn 0.000000 0.000000 -1.000000
vn 0.000000 0.000000 -1.000000
vn 0.000000 0.000000 -1.000000
vn 0.000000 0.000000 -1.000000
vn 0.000000 0.000000 -1.000000
vn 0.000000 -1.000000 0.000000
vn 0.000000 -1.000000 0.000000
vn 0.000000 -1.000000 0.000000
vn 0.000000 -1.000000 0.000000
vn 0.000000 -1.000000 0.000000
vn 0.000000 -1.000000 0.000000
vn 0.000000 -1.000000 0.000000
vn 0.000000 -1.000000 0.000000
vn 0.000000 -1.000000 0.000000
vn 0.000000 -1.000000 0.000000
vn 0.000000 -1.000000 0.000000
vn 0.000000 -1.000000 0.000000
vn 1.000000 0.000000 0.000000
vn 1.000000 0.000000 0.000000
vn 1.000000 0.000000 0.000000
vn 1.000000 0.000000 0.000000
vn 1.000000 0.000000 0.000000
vn 1.000000 0.000000 0.000000
vn 1.000000 0.000000 0.000000
vn 1.000000 0.000000 0.000000
vn -1.000000 0.000000 0.000000
vn -1.000000 0.000000 0.000000
vn -1.000000 0.000000 0.000000
vn -1.000000 0.000000 0.000000
vn -1.000000 0.000000 0.000000
vn -1.000000 0.000000 0.000000
vn -1.000000 0.000000 0.000000
vn -1.000000 0.000000 0.000000
vn 0.000000 -1.000000 0.000000
vn 0.000000 -1.000000 0.000000
vn 0.000000 -1.000000 0.000000
vn 0.000000 -1.000000 0.000000
vn -1.000000 0.000000 0.000000
vn -1.000000 0.000000 0.000000
vn -1.000000 0.000000 0.000000
vn -1.000000 0.000000 0.000000
vn 0.000000 1.000000 0.000000
vn 0.000000 1.000000 0.000000
vn 0.000000 1.000000 0.000000
vn 0.000000 1.000000 0.000000
vn 1.000000 0.000000 0.000000
vn 1.000000 0.000000 0.000000
vn 1.000000 0.000000 0.000000
vn 1.000000 0.000000 0.000000
vn 0.000000 0.000000 1.000000
vn 0.000000 0.000000 1.000000
vn 0.000000 0.000000 1.000000
vn 0.000000 0.000000 1.000000
vn 1.000000 0.000000 0.000000
vn 1.000000 0.000000 0.000000
vn 1.000000 0.000000 0.000000
vn 1.000000 0.000000 0.000000
vn 0.000000 0.000000 -1.000000
vn 0.000000 0.000000 -1.000000
vn 0.000000 0.000000 -1.000000
vn 0.000000 0.000000 -1.000000
vn -1.000000 0.000000 0.000000
vn -1.000000 0.000000 0.000000
vn -1.000000 0.000000 0.000000
vn -1.000000 0.000000 0.000000
vn 0.000000 0.000000 1.000000
vn 0.000000 0.000000 1.000000
vn 0.000000 0.000000 1.000000
vn 0.000000 0.000000 1.000000
vn 1.000000 0.000000 0.000000
vn 1.000000 0.000000 0.000000
vn 1.000000 0.000000 0.000000
vn 1.000000 0.000000 0.000000
vn 0.000000 0.000000 -1.000000
vn 0.000000 0.000000 -1.000000
vn 0.000000 0.000000 -1.000000
vn 0.000000 0.000000 -1.000000
vn -1.000000 0.000000 0.000000
vn -1.000000 0.000000 0.000000
vn -1.000000 0.000000 0.000000
vn -1.000000 0.000000 0.000000
vn 0.000000 0.000000 -1.000000
vn 0.000000 0.000000 -1.000000
vn 0.000000 0.000000 -1.000000
vn 0.000000 0.000000 -1.000000
vn 1.000000 0.000000 0.000000
vn 1.000000 0.000000 0.000000
vn 1.000000 0.000000 0.000000
vn 1.000000 0.000000 0.000000
vn 0.000000 0.000000 1.000000
vn 0.000000 0.000000 1.000000
vn 0.000000 0.000000 1.000000
vn 0.000000 0.000000 1.000000
vn -1.000000 0.000000 0.000000
vn -1.000000 0.000000 0.000000
vn -1.000000 0.000000 0.000000
vn -1.000000 0.000000 0.000000
vn 0.000000 0.000000 -1.000000
vn 0.000000 0.000000 -1.000000
vn 0.000000 0.000000 -1.000000
vn 0.000000 0.000000 -1.000000
vn 1.000000 0.000000 0.000000
vn 1.000000 0.000000 0.000000
vn 1.000000 0.000000 0.000000
vn 1.000000 0.000000 0.000000
vn 0.000000 0.000000 1.000000
vn 0.000000 0.000000 1.000000
vn 0.000000 0.000000 1.000000
vn 0.000000 0.000000 1.000000
vn -1.000000 0.000000 0.000000
vn -1.000000 0.000000 0.000000
vn -1.000000 0.000000 0.000000
vn -1.000000 0.000000 0.000000
s 1
g Sign2
usemtl blinn6SG
f 1/1/1 2/2/2 6/6/3 5/5/4
f 2/2/2 3/3/5 7/7/6 6/6/3
f 3/3/5 4/4/7 8/8/8 7/7/6
f 5/5/4 6/6/3 10/10/9 9/9/10
f 6/6/3 7/7/6 11/11/11 10/10/9
f 7/7/6 8/8/8 12/12/12 11/11/11
f 9/9/10 10/10/9 14/14/13 13/13/14
f 10/10/9 11/11/11 15/15/15 14/14/13
f 11/11/11 12/12/12 16/16/16 15/15/15
s off
f 37/49/17 38/50/18 39/51/19 40/52/20
f 14/14/21 15/15/22 19/19/23 18/18/24
f 41/53/25 42/54/26 43/55/27 44/56/28
s 2
f 17/17/29 18/18/30 22/22/31 21/21/32
f 18/18/30 19/19/33 23/23/34 22/22/31
f 19/19/33 20/20/35 24/24/36 23/23/34
f 21/21/32 22/22/31 26/26/37 25/25/38
s off
usemtl blinn18SG
f 33/45/39 34/46/40 35/47/41 36/48/42
s 2
usemtl blinn6SG
f 23/23/34 24/24/36 28/28/43 27/27/44
f 25/25/38 26/26/37 30/30/45 29/29/46
f 26/26/37 27/27/44 31/31/47 30/30/45
f 27/27/44 28/28/43 32/32/48 31/31/47
s off
f 45/57/49 46/58/50 47/59/51 48/60/52
f 30/30/53 31/31/54 3/35/55 2/34/56
f 49/61/57 50/62/58 51/63/59 52/64/60
s 3
f 4/4/61 32/37/62 28/38/63 8/8/64
f 8/8/64 28/38/63 24/39/65 12/12/66
f 12/12/66 24/39/65 20/40/67 16/16/68
s 4
f 29/41/69 1/1/70 5/5/71 25/42/72
f 25/42/72 5/5/71 9/9/73 21/43/74
f 21/43/74 9/9/73 13/13/75 17/44/76
s off
f 22/22/77 23/23/78 34/46/79 33/45/80
f 23/23/81 27/27/82 35/47/83 34/46/84
f 27/27/85 26/26/86 36/48/87 35/47/88
f 26/26/89 22/22/90 33/45/91 36/48/92
f 13/13/93 14/14/94 38/50/95 37/49/96
f 14/14/97 18/18/98 39/51/99 38/50/100
f 18/18/101 17/17/102 40/52/103 39/51/104
f 17/17/105 13/13/106 37/49/107 40/52/108
f 15/15/109 16/16/110 42/54/111 41/53/112
f 16/16/113 20/20/114 43/55/115 42/54/116
f 20/20/117 19/19/118 44/56/119 43/55/120
f 19/19/121 15/15/122 41/53/123 44/56/124
f 29/29/125 30/30/126 46/58/127 45/57/128
f 30/30/129 2/34/130 47/59/131 46/58/132
f 2/34/133 1/33/134 48/60/135 47/59/136
f 1/33/137 29/29/138 45/57/139 48/60/140
f 31/31/141 32/32/142 50/62/143 49/61/144
f 32/32/145 4/36/146 51/63/147 50/62/148
f 4/36/149 3/35/150 52/64/151 51/63/152
f 3/35/153 31/31/154 49/61/155 52/64/156
