# This file uses centimeters as units for non-parametric coordinates.

mtllib Fence1.mtl
g default
v -2.100000 0.000000 -5.641187
v -1.900000 0.000000 -5.641187
v -2.100000 4.000000 -5.754394
v -1.900000 4.000000 -5.754394
v -2.100000 4.000000 -6.027980
v -1.900000 4.000000 -6.027980
v -2.100000 0.000000 -6.141187
v -1.900000 0.000000 -6.141187
v -1.900000 3.687113 -6.141187
v -2.100000 3.687113 -6.141187
v -2.100000 3.687113 -5.641187
v -1.900000 3.687113 -5.641187
v -2.100000 0.000000 -4.641187
v -1.900000 0.000000 -4.641187
v -2.100000 4.000000 -4.754394
v -1.900000 4.000000 -4.754394
v -2.100000 4.000000 -5.027980
v -1.900000 4.000000 -5.027980
v -2.100000 0.000000 -5.141187
v -1.900000 0.000000 -5.141187
v -1.900000 3.687113 -5.141187
v -2.100000 3.687113 -5.141187
v -2.100000 3.687113 -4.641187
v -1.900000 3.687113 -4.641187
v -2.100000 2.750000 -2.891187
v -1.900000 2.750000 -2.891187
v -2.100000 3.250000 -2.891187
v -1.900000 3.250000 -2.891187
v -2.100000 3.250000 -5.891187
v -1.900000 3.250000 -5.891187
v -2.100000 2.750000 -5.891187
v -1.900000 2.750000 -5.891187
v -2.100000 0.000000 -3.641187
v -1.900000 0.000000 -3.641187
v -2.100000 4.000000 -3.754394
v -1.900000 4.000000 -3.754394
v -2.100000 4.000000 -4.027980
v -1.900000 4.000000 -4.027980
v -2.100000 0.000000 -4.141187
v -1.900000 0.000000 -4.141187
v -1.900000 3.687113 -4.141187
v -2.100000 3.687113 -4.141187
v -2.100000 3.687113 -3.641187
v -1.900000 3.687113 -3.641187
v -2.100000 0.000000 -2.641187
v -1.900000 0.000000 -2.641187
v -2.100000 4.000000 -2.754394
v -1.900000 4.000000 -2.754394
v -2.100000 4.000000 -3.027980
v -1.900000 4.000000 -3.027980
v -2.100000 0.000000 -3.141187
v -1.900000 0.000000 -3.141187
v -1.900000 3.687113 -3.141187
v -2.100000 3.687113 -3.141187
v -2.100000 3.687113 -2.641187
v -1.900000 3.687113 -2.641187
v -2.100000 0.250000 -2.891187
v -1.900000 0.250000 -2.891187
v -2.100000 0.750000 -2.891187
v -1.900000 0.750000 -2.891187
v -2.100000 0.750000 -5.891187
v -1.900000 0.750000 -5.891187
v -2.100000 0.250000 -5.891187
v -1.900000 0.250000 -5.891187
vt 0.375000 0.000000
vt 0.625000 0.000000
vt 0.375000 0.250000
vt 0.625000 0.250000
vt 0.375000 0.500000
vt 0.625000 0.500000
vt 0.375000 0.750000
vt 0.625000 0.750000
vt 0.375000 1.000000
vt 0.625000 1.000000
vt 0.875000 0.000000
vt 0.875000 0.250000
vt 0.125000 0.000000
vt 0.125000 0.250000
vt 0.625000 0.518604
vt 0.875000 0.231396
vt 0.125000 0.231396
vt 0.375000 0.518604
vt 0.375000 0.231396
vt 0.625000 0.231396
vt 0.625000 0.528250
vt 0.875000 0.221750
vt 0.125000 0.221750
vt 0.375000 0.528250
vt 0.375000 0.221750
vt 0.625000 0.221750
vt 0.375000 0.221750
vt 0.625000 0.221750
vt 0.625000 0.250000
vt 0.375000 0.250000
vt 0.625000 0.500000
vt 0.375000 0.500000
vt 0.625000 0.528250
vt 0.375000 0.528250
vt 0.375000 0.750000
vt 0.625000 0.750000
vt 0.625000 1.000000
vt 0.375000 1.000000
vt 0.875000 0.221750
vt 0.875000 0.250000
vt 0.125000 0.221750
vt 0.125000 0.250000
vt 0.125000 0.000000
vt 0.375000 0.000000
vt 0.625000 0.000000
vt 0.875000 0.000000
vt 0.375000 0.000000
vt 0.625000 0.000000
vt 0.625000 0.250000
vt 0.375000 0.250000
vt 0.625000 0.500000
vt 0.375000 0.500000
vt 0.625000 0.750000
vt 0.375000 0.750000
vt 0.625000 1.000000
vt 0.375000 1.000000
vt 0.875000 0.000000
vt 0.875000 0.250000
vt 0.125000 0.000000
vt 0.125000 0.250000
vt 0.375000 0.221750
vt 0.625000 0.221750
vt 0.625000 0.250000
vt 0.375000 0.250000
vt 0.625000 0.500000
vt 0.375000 0.500000
vt 0.625000 0.528250
vt 0.375000 0.528250
vt 0.375000 0.750000
vt 0.625000 0.750000
vt 0.625000 1.000000
vt 0.375000 1.000000
vt 0.875000 0.221750
vt 0.875000 0.250000
vt 0.125000 0.221750
vt 0.125000 0.250000
vt 0.125000 0.000000
vt 0.375000 0.000000
vt 0.625000 0.000000
vt 0.875000 0.000000
vt 0.375000 0.221750
vt 0.625000 0.221750
vt 0.625000 0.250000
vt 0.375000 0.250000
vt 0.625000 0.500000
vt 0.375000 0.500000
vt 0.625000 0.528250
vt 0.375000 0.528250
vt 0.375000 0.750000
vt 0.625000 0.750000
vt 0.625000 1.000000
vt 0.375000 1.000000
vt 0.875000 0.221750
vt 0.875000 0.250000
vt 0.125000 0.221750
vt 0.125000 0.250000
vt 0.125000 0.000000
vt 0.375000 0.000000
vt 0.625000 0.000000
vt 0.875000 0.000000
vt 0.375000 0.000000
vt 0.625000 0.000000
vt 0.625000 0.250000
vt 0.375000 0.250000
vt 0.625000 0.500000
vt 0.375000 0.500000
vt 0.625000 0.750000
vt 0.375000 0.750000
vt 0.625000 1.000000
vt 0.375000 1.000000
vt 0.875000 0.000000
vt 0.875000 0.250000
vt 0.125000 0.000000
vt 0.125000 0.250000
vn 0.000000 0.028290 0.999600
vn 0.000000 0.028290 0.999600
vn 0.000000 0.340229 0.940343
vn 0.000000 0.340229 0.940343
vn 0.000000 1.000000 0.000000
vn 0.000000 1.000000 0.000000
vn 0.000000 1.000000 0.000000
vn 0.000000 1.000000 0.000000
vn 0.000000 0.340229 -0.940343
vn 0.000000 0.340229 -0.940343
vn 0.000000 0.028290 -0.999600
vn 0.000000 0.028290 -0.999600
vn 0.000000 -1.000000 0.000000
vn 0.000000 -1.000000 0.000000
vn 0.000000 -1.000000 0.000000
vn 0.000000 -1.000000 0.000000
vn 1.000000 0.000000 0.000000
vn 1.000000 0.000000 0.000000
vn 1.000000 0.000000 0.000000
vn 1.000000 0.000000 0.000000
vn -1.000000 0.000000 0.000000
vn -1.000000 0.000000 0.000000
vn -1.000000 0.000000 0.000000
vn -1.000000 0.000000 0.000000
vn 0.000000 0.000000 -1.000000
vn 0.000000 0.000000 -1.000000
vn -1.000000 0.000000 0.000000
vn -1.000000 0.000000 0.000000
vn 0.000000 0.000000 1.000000
vn 0.000000 0.000000 1.000000
vn 1.000000 0.000000 0.000000
vn 1.000000 0.000000 0.000000
vn 0.000000 0.028290 0.999600
vn 0.000000 0.028290 0.999600
vn 0.000000 0.340229 0.940343
vn 0.000000 0.340229 0.940343
vn 0.000000 1.000000 0.000000
vn 0.000000 1.000000 0.000000
vn 0.000000 1.000000 0.000000
vn 0.000000 1.000000 0.000000
vn 0.000000 0.340229 -0.940343
vn 0.000000 0.340229 -0.940343
vn 0.000000 0.028290 -0.999600
vn 0.000000 0.028290 -0.999600
vn 0.000000 -1.000000 0.000000
vn 0.000000 -1.000000 0.000000
vn 0.000000 -1.000000 0.000000
vn 0.000000 -1.000000 0.000000
vn 1.000000 0.000000 0.000000
vn 1.000000 0.000000 0.000000
vn 1.000000 0.000000 0.000000
vn 1.000000 0.000000 0.000000
vn -1.000000 0.000000 0.000000
vn -1.000000 0.000000 0.000000
vn -1.000000 0.000000 0.000000
vn -1.000000 0.000000 0.000000
vn 0.000000 0.000000 -1.000000
vn 0.000000 0.000000 -1.000000
vn -1.000000 0.000000 0.000000
vn -1.000000 0.000000 0.000000
vn 0.000000 0.000000 1.000000
vn 0.000000 0.000000 1.000000
vn 1.000000 0.000000 0.000000
vn 1.000000 0.000000 0.000000
vn 0.000000 0.000000 1.000000
vn 0.000000 0.000000 1.000000
vn 0.000000 0.000000 1.000000
vn 0.000000 0.000000 1.000000
vn 0.000000 1.000000 0.000000
vn 0.000000 1.000000 0.000000
vn 0.000000 1.000000 0.000000
vn 0.000000 1.000000 0.000000
vn 0.000000 0.000000 -1.000000
vn 0.000000 0.000000 -1.000000
vn 0.000000 0.000000 -1.000000
vn 0.000000 0.000000 -1.000000
vn 0.000000 -1.000000 0.000000
vn 0.000000 -1.000000 0.000000
vn 0.000000 -1.000000 0.000000
vn 0.000000 -1.000000 0.000000
vn 1.000000 0.000000 0.000000
vn 1.000000 0.000000 0.000000
vn 1.000000 0.000000 0.000000
vn 1.000000 0.000000 0.000000
vn -1.000000 0.000000 0.000000
vn -1.000000 0.000000 0.000000
vn -1.000000 0.000000 0.000000
vn -1.000000 0.000000 0.000000
vn 0.000000 0.028290 0.999600
vn 0.000000 0.028290 0.999600
vn 0.000000 0.340229 0.940343
vn 0.000000 0.340229 0.940343
vn 0.000000 1.000000 0.000000
vn 0.000000 1.000000 0.000000
vn 0.000000 1.000000 0.000000
vn 0.000000 1.000000 0.000000
vn 0.000000 0.340229 -0.940343
vn 0.000000 0.340229 -0.940343
vn 0.000000 0.028290 -0.999600
vn 0.000000 0.028290 -0.999600
vn 0.000000 -1.000000 0.000000
vn 0.000000 -1.000000 0.000000
vn 0.000000 -1.000000 0.000000
vn 0.000000 -1.000000 0.000000
vn 1.000000 0.000000 0.000000
vn 1.000000 0.000000 0.000000
vn 1.000000 0.000000 0.000000
vn 1.000000 0.000000 0.000000
vn -1.000000 0.000000 0.000000
vn -1.000000 0.000000 0.000000
vn -1.000000 0.000000 0.000000
vn -1.000000 0.000000 0.000000
vn 0.000000 0.000000 -1.000000
vn 0.000000 0.000000 -1.000000
vn -1.000000 0.000000 0.000000
vn -1.000000 0.000000 0.000000
vn 0.000000 0.000000 1.000000
vn 0.000000 0.000000 1.000000
vn 1.000000 0.000000 0.000000
vn 1.000000 0.000000 0.000000
vn 0.000000 0.028290 0.999600
vn 0.000000 0.028290 0.999600
vn 0.000000 0.340229 0.940343
vn 0.000000 0.340229 0.940343
vn 0.000000 1.000000 0.000000
vn 0.000000 1.000000 0.000000
vn 0.000000 1.000000 0.000000
vn 0.000000 1.000000 0.000000
vn 0.000000 0.340229 -0.940343
vn 0.000000 0.340229 -0.940343
vn 0.000000 0.028290 -0.999600
vn 0.000000 0.028290 -0.999600
vn 0.000000 -1.000000 0.000000
vn 0.000000 -1.000000 0.000000
vn 0.000000 -1.000000 0.000000
vn 0.000000 -1.000000 0.000000
vn 1.000000 0.000000 0.000000
vn 1.000000 0.000000 0.000000
vn 1.000000 0.000000 0.000000
vn 1.000000 0.000000 0.000000
vn -1.000000 0.000000 0.000000
vn -1.000000 0.000000 0.000000
vn -1.000000 0.000000 0.000000
vn -1.000000 0.000000 0.000000
vn 0.000000 0.000000 -1.000000
vn 0.000000 0.000000 -1.000000
vn -1.000000 0.000000 0.000000
vn -1.000000 0.000000 0.000000
vn 0.000000 0.000000 1.000000
vn 0.000000 0.000000 1.000000
vn 1.000000 0.000000 0.000000
vn 1.000000 0.000000 0.000000
vn 0.000000 0.000000 1.000000
vn 0.000000 0.000000 1.000000
vn 0.000000 0.000000 1.000000
vn 0.000000 0.000000 1.000000
vn 0.000000 1.000000 0.000000
vn 0.000000 1.000000 0.000000
vn 0.000000 1.000000 0.000000
vn 0.000000 1.000000 0.000000
vn 0.000000 0.000000 -1.000000
vn 0.000000 0.000000 -1.000000
vn 0.000000 0.000000 -1.000000
vn 0.000000 0.000000 -1.000000
vn 0.000000 -1.000000 0.000000
vn 0.000000 -1.000000 0.000000
vn 0.000000 -1.000000 0.000000
vn 0.000000 -1.000000 0.000000
vn 1.000000 0.000000 0.000000
vn 1.000000 0.000000 0.000000
vn 1.000000 0.000000 0.000000
vn 1.000000 0.000000 0.000000
vn -1.000000 0.000000 0.000000
vn -1.000000 0.000000 0.000000
vn -1.000000 0.000000 0.000000
vn -1.000000 0.000000 0.000000
s 1
g pCube36
usemtl initialShadingGroup
f 11/25/1 12/26/2 4/4/3 3/3/4
s off
f 3/3/5 4/4/6 6/6/7 5/5/8
s 2
f 5/5/9 6/6/10 9/21/11 10/24/12
s off
f 7/7/13 8/8/14 2/10/15 1/9/16
s 3
f 12/26/17 9/22/18 6/12/19 4/4/20
s 4
f 10/23/21 11/25/22 3/3/23 5/14/24
s 2
f 10/24/12 9/21/11 8/8/25 7/7/26
s 4
f 7/13/27 1/1/28 11/25/22 10/23/21
s 1
f 1/1/29 2/2/30 12/26/2 11/25/1
s 3
f 2/2/31 8/11/32 9/22/18 12/26/17
s 5
f 23/27/33 24/28/34 16/29/35 15/30/36
s off
f 15/30/37 16/29/38 18/31/39 17/32/40
s 6
f 17/32/41 18/31/42 21/33/43 22/34/44
s off
f 19/35/45 20/36/46 14/37/47 13/38/48
s 7
f 24/28/49 21/39/50 18/40/51 16/29/52
s 8
f 22/41/53 23/27/54 15/30/55 17/42/56
s 6
f 22/34/44 21/33/43 20/36/57 19/35/58
s 8
f 19/43/59 13/44/60 23/27/54 22/41/53
s 5
f 13/44/61 14/45/62 24/28/34 23/27/33
s 7
f 14/45/63 20/46/64 21/39/50 24/28/49
s off
f 25/47/65 26/48/66 28/49/67 27/50/68
f 27/50/69 28/49/70 30/51/71 29/52/72
f 29/52/73 30/51/74 32/53/75 31/54/76
f 31/54/77 32/53/78 26/55/79 25/56/80
f 26/48/81 32/57/82 30/58/83 28/49/84
f 31/59/85 25/47/86 27/50/87 29/60/88
s 9
f 43/61/89 44/62/90 36/63/91 35/64/92
s off
f 35/64/93 36/63/94 38/65/95 37/66/96
s 10
f 37/66/97 38/65/98 41/67/99 42/68/100
s off
f 39/69/101 40/70/102 34/71/103 33/72/104
s 11
f 44/62/105 41/73/106 38/74/107 36/63/108
s 12
f 42/75/109 43/61/110 35/64/111 37/76/112
s 10
f 42/68/100 41/67/99 40/70/113 39/69/114
s 12
f 39/77/115 33/78/116 43/61/110 42/75/109
s 9
f 33/78/117 34/79/118 44/62/90 43/61/89
s 11
f 34/79/119 40/80/120 41/73/106 44/62/105
s 13
f 55/81/121 56/82/122 48/83/123 47/84/124
s off
f 47/84/125 48/83/126 50/85/127 49/86/128
s 14
f 49/86/129 50/85/130 53/87/131 54/88/132
s off
f 51/89/133 52/90/134 46/91/135 45/92/136
s 15
f 56/82/137 53/93/138 50/94/139 48/83/140
s 16
f 54/95/141 55/81/142 47/84/143 49/96/144
s 14
f 54/88/132 53/87/131 52/90/145 51/89/146
s 16
f 51/97/147 45/98/148 55/81/142 54/95/141
s 13
f 45/98/149 46/99/150 56/82/122 55/81/121
s 15
f 46/99/151 52/100/152 53/93/138 56/82/137
s off
f 57/101/153 58/102/154 60/103/155 59/104/156
f 59/104/157 60/103/158 62/105/159 61/106/160
f 61/106/161 62/105/162 64/107/163 63/108/164
f 63/108/165 64/107/166 58/109/167 57/110/168
f 58/102/169 64/111/170 62/112/171 60/103/172
f 63/113/173 57/101/174 59/104/175 61/114/176
